# File created by Blade
# Date/Time:  Thu Jan 22 16:04:59 2015
# Frame Rate: 120.000 fps
#------------------------------------------------------
:FULLY-SPECIFIED
:DEGREES
859
root 4.135199 36.705916 5.571844 9.599794 51.344104 13.916390
RightUpLeg 21.969122 -33.527844 -16.198528
RightLeg -5.566923 -0.000000 0.000000
RightFoot -22.575691 -32.850552 27.156698
RightToeBase 9.943229 -0.000000 -0.000000
LeftUpLeg -11.657155 -34.707046 2.208385
LeftLeg 4.925466 -0.000000 -0.000000
LeftFoot 6.309547 -7.778637 -23.490723
LeftToeBase 1.527726 -0.000000 -0.000000
Spine 7.380239 40.353049 8.132851
RightShoulder 13.611067 0.607830 -39.032096
RightArm 94.319963 -5.924332 22.556375
RightForeArm -17.678439 -0.000000 110.501482
RightHand 15.481205 -0.000000 -7.489026
RightHandThumb1 -24.326973 -0.000000 -32.862282
LeftShoulder -39.044153 39.245626 -1.500424
LeftArm 25.925293 -30.943126 -64.506194
LeftForeArm 28.754832 0.000000 6.815491
LeftHand -31.950759 -0.000000 11.302344
LeftHandThumb1 -26.253704 0.000000 33.147579
Head 24.306500 59.279784 -5.562654
860
root 4.129763 36.705583 5.569800 9.610957 51.423282 13.912840
RightUpLeg 21.955758 -33.561001 -16.167991
RightLeg -5.543476 -0.000000 0.000000
RightFoot -22.616006 -32.872383 27.200645
RightToeBase 9.915974 -0.000000 -0.000000
LeftUpLeg -11.682635 -34.739177 2.234576
LeftLeg 4.912401 -0.000000 -0.000000
LeftFoot 6.329656 -7.782875 -23.478573
LeftToeBase 1.499734 -0.000000 -0.000000
Spine 7.413666 40.451356 8.195328
RightShoulder 13.616367 0.596131 -39.039323
RightArm 94.343129 -5.951650 22.611116
RightForeArm -17.644991 0.000000 110.538049
RightHand 15.465306 -0.000000 -7.463148
RightHandThumb1 -24.326973 -0.000000 -32.862282
LeftShoulder -39.044712 39.264365 -1.497607
LeftArm 25.872937 -30.921281 -64.515643
LeftForeArm 28.718334 0.000000 6.749428
LeftHand -31.933542 -0.000000 11.201858
LeftHandThumb1 -26.253704 0.000000 33.147579
Head 24.264358 59.034309 -5.616405
861
root 4.124353 36.705682 5.567478 9.628541 51.492510 13.915172
RightUpLeg 21.939878 -33.578112 -16.136391
RightLeg -5.527667 -0.000000 0.000000
RightFoot -22.604392 -32.903338 27.171809
RightToeBase 9.857690 -0.000000 -0.000000
LeftUpLeg -11.717452 -34.764412 2.255382
LeftLeg 4.916410 -0.000000 -0.000000
LeftFoot 6.347126 -7.785642 -23.466811
LeftToeBase 1.495080 -0.000000 -0.000000
Spine 7.457341 40.540552 8.247613
RightShoulder 13.605037 0.617252 -39.040895
RightArm 94.417582 -5.987228 22.614707
RightForeArm -17.802438 0.000000 110.522833
RightHand 15.540328 -0.000000 -7.638559
RightHandThumb1 -24.326973 -0.000000 -32.862282
LeftShoulder -39.051009 39.251829 -1.516172
LeftArm 25.754332 -30.904343 -64.474027
LeftForeArm 28.683350 -0.000000 6.746082
LeftHand -31.921705 -0.000000 11.018933
LeftHandThumb1 -26.253704 0.000000 33.147579
Head 24.239273 58.848531 -5.646668
862
root 4.118788 36.705857 5.564490 9.664835 51.569453 13.927755
RightUpLeg 21.914923 -33.630052 -16.116052
RightLeg -5.500158 -0.000000 0.000000
RightFoot -22.612485 -32.912277 27.152780
RightToeBase 9.840769 -0.000000 -0.000000
LeftUpLeg -11.773936 -34.814160 2.282997
LeftLeg 4.929818 -0.000000 -0.000000
LeftFoot 6.360967 -7.772228 -23.464475
LeftToeBase 1.542998 -0.000000 -0.000000
Spine 7.464677 40.617081 8.276431
RightShoulder 13.639255 0.790302 -39.031165
RightArm 94.319317 -6.193005 22.768425
RightForeArm -17.395493 -0.000000 110.665843
RightHand 15.338187 -0.000000 -7.232308
RightHandThumb1 -24.326973 -0.000000 -32.862282
LeftShoulder -39.044956 39.259301 -1.526000
LeftArm 25.666559 -30.949960 -64.468260
LeftForeArm 28.685687 -0.000000 6.676141
LeftHand -31.912458 -0.000000 11.025515
LeftHandThumb1 -26.253704 0.000000 33.147579
Head 24.230320 58.638327 -5.679850
863
root 4.113803 36.705423 5.562883 9.675771 51.649583 13.931395
RightUpLeg 21.918384 -33.667458 -16.098130
RightLeg -5.485088 -0.000000 0.000000
RightFoot -22.637180 -32.912548 27.178182
RightToeBase 9.881003 -0.000000 -0.000000
LeftUpLeg -11.813636 -34.845213 2.297592
LeftLeg 4.964607 -0.000000 -0.000000
LeftFoot 6.357143 -7.780794 -23.450987
LeftToeBase 1.563895 -0.000000 -0.000000
Spine 7.506642 40.701466 8.324479
RightShoulder 13.640407 0.701519 -39.037666
RightArm 94.374834 -6.132703 22.807304
RightForeArm -17.378505 0.000000 110.715483
RightHand 15.344548 -0.000000 -7.246136
RightHandThumb1 -24.326973 -0.000000 -32.862282
LeftShoulder -39.062919 39.289952 -1.558522
LeftArm 25.629812 -31.011437 -64.509241
LeftForeArm 28.703319 -0.000000 6.637469
LeftHand -32.003990 -0.000000 10.967000
LeftHandThumb1 -26.253704 0.000000 33.147579
Head 24.215543 58.429894 -5.682983
864
root 4.108288 36.704668 5.560827 9.693859 51.732291 13.937555
RightUpLeg 21.922078 -33.720095 -16.084118
RightLeg -5.474003 -0.000000 0.000000
RightFoot -22.674120 -32.916572 27.210197
RightToeBase 9.917272 -0.000000 -0.000000
LeftUpLeg -11.869234 -34.868102 2.316001
LeftLeg 5.014904 -0.000000 -0.000000
LeftFoot 6.366396 -7.807328 -23.446457
LeftToeBase 1.559068 -0.000000 -0.000000
Spine 7.536633 40.761713 8.362805
RightShoulder 13.659930 0.681563 -39.054017
RightArm 94.388718 -6.134677 22.863172
RightForeArm -17.346707 -0.000000 110.709113
RightHand 15.155763 -0.000000 -7.512621
RightHandThumb1 -24.326973 -0.000000 -32.862282
LeftShoulder -39.073023 39.318247 -1.581025
LeftArm 25.550528 -31.077689 -64.538782
LeftForeArm 28.712706 -0.000000 6.601086
LeftHand -31.954562 -0.000000 10.940078
LeftHandThumb1 -26.253704 0.000000 33.147579
Head 24.120962 58.186181 -5.785209
865
root 4.102620 36.704426 5.559683 9.696755 51.804436 13.939870
RightUpLeg 21.934069 -33.747920 -16.065561
RightLeg -5.471088 -0.000000 0.000000
RightFoot -22.661186 -32.934936 27.190094
RightToeBase 9.838085 -0.000000 -0.000000
LeftUpLeg -11.905695 -34.870674 2.325715
LeftLeg 5.061593 -0.000000 -0.000000
LeftFoot 6.381522 -7.841397 -23.441541
LeftToeBase 1.577127 -0.000000 -0.000000
Spine 7.594447 40.832149 8.416517
RightShoulder 13.671401 0.644488 -39.075702
RightArm 94.408561 -6.123784 22.921684
RightForeArm -17.296398 -0.000000 110.733583
RightHand 15.188110 -0.000000 -7.646961
RightHandThumb1 -24.326973 -0.000000 -32.862282
LeftShoulder -39.085990 39.331946 -1.619804
LeftArm 25.489257 -31.138377 -64.553820
LeftForeArm 28.690799 -0.000000 6.533982
LeftHand -31.993966 -0.000000 10.941432
LeftHandThumb1 -26.253704 0.000000 33.147579
Head 24.101389 57.980754 -5.795993
866
root 4.097317 36.703979 5.558571 9.714489 51.888037 13.949668
RightUpLeg 21.951067 -33.815343 -16.060179
RightLeg -5.471994 -0.000000 0.000000
RightFoot -22.637198 -32.938356 27.158623
RightToeBase 9.841507 -0.000000 -0.000000
LeftUpLeg -11.961640 -34.897715 2.342451
LeftLeg 5.120036 -0.000000 -0.000000
LeftFoot 6.390219 -7.878529 -23.444291
LeftToeBase 1.559559 -0.000000 -0.000000
Spine 7.624826 40.891919 8.446477
RightShoulder 13.689320 0.663904 -39.076349
RightArm 94.424724 -6.176927 22.986506
RightForeArm -17.257019 -0.000000 110.773252
RightHand 15.256229 -0.000000 -7.578920
RightHandThumb1 -24.326973 -0.000000 -32.862282
LeftShoulder -39.075030 39.334846 -1.626769
LeftArm 25.381554 -31.181437 -64.551264
LeftForeArm 28.695834 0.000000 6.482194
LeftHand -32.105036 0.000000 11.075923
LeftHandThumb1 -26.253704 0.000000 33.147579
Head 24.056706 57.736192 -5.840932
867
root 4.092275 36.703783 5.558106 9.713419 51.946168 13.949004
RightUpLeg 21.966797 -33.847238 -16.047897
RightLeg -5.474567 -0.000000 0.000000
RightFoot -22.650797 -32.941953 27.177334
RightToeBase 9.849713 -0.000000 -0.000000
LeftUpLeg -11.993605 -34.907602 2.355804
LeftLeg 5.159130 -0.000000 -0.000000
LeftFoot 6.399971 -7.910966 -23.448261
LeftToeBase 1.601527 -0.000000 -0.000000
Spine 7.677957 40.980118 8.495288
RightShoulder 13.695939 0.680249 -39.085930
RightArm 94.423764 -6.244757 23.061810
RightForeArm -17.289336 -0.000000 110.831125
RightHand 15.256535 -0.000000 -7.460550
RightHandThumb1 -24.326973 -0.000000 -32.862282
LeftShoulder -39.038536 39.337280 -1.622737
LeftArm 25.269023 -31.237956 -64.545134
LeftForeArm 28.550636 -0.000000 6.425094
LeftHand -32.157216 0.000000 11.025678
LeftHandThumb1 -26.253704 0.000000 33.147579
Head 23.993187 57.477263 -5.909197
868
root 4.086827 36.703751 5.558058 9.709605 52.002356 13.940729
RightUpLeg 21.970776 -33.871672 -16.023654
RightLeg -5.468831 -0.000000 0.000000
RightFoot -22.665601 -32.952303 27.184350
RightToeBase 9.846159 -0.000000 -0.000000
LeftUpLeg -12.030748 -34.937933 2.382259
LeftLeg 5.197837 -0.000000 -0.000000
LeftFoot 6.399565 -7.928148 -23.440279
LeftToeBase 1.606981 -0.000000 -0.000000
Spine 7.732362 41.055755 8.535434
RightShoulder 13.686537 0.722587 -39.087066
RightArm 94.435176 -6.323691 23.108945
RightForeArm -17.296132 -0.000000 110.867223
RightHand 15.324264 -0.000000 -7.537429
RightHandThumb1 -24.326973 -0.000000 -32.862282
LeftShoulder -39.068617 39.318291 -1.660810
LeftArm 25.189259 -31.251760 -64.522118
LeftForeArm 28.497197 -0.000000 6.357883
LeftHand -32.224287 -0.000000 11.164264
LeftHandThumb1 -26.253704 0.000000 33.147579
Head 23.948824 57.275477 -5.938717
